<?xml version="1.0"?>
<svg xmlns="http://www.w3.org/2000/svg" xmlns:lc="https://librecad.org" xmlns:xlink="http://www.w3.org/1999/xlink" width="171.36300634mm" height="64.99306827mm" viewBox="0 0 171.36300634 64.99306827">
    <g lc:layername="0" lc:is_locked="false" lc:is_construction="false" fill="none" stroke="black" stroke-width="0.1">
        <path d="M124.73091545,4 A4,4 0 0,0 120.73091545,0 "/>
        <path d="M108.23091545,40.2 A1.5,1.5 0 0,0 106.73091545,41.7 "/>
        <path d="M105.23091545,60.2 A1.5,1.5 0 0,0 106.73091545,58.7 "/>
        <path d="M123.23091545,40.2 A1.5,1.5 0 0,0 124.73091545,38.7 "/>
        <path d="M19.73091545,41.7 A1.5,1.5 0 0,0 18.23091545,40.2 "/>
        <path d="M19.73091545,58.7 A1.5,1.5 0 0,0 21.23091545,60.2 "/>
        <line x1="124.73091545" y1="38.7" x2="124.73091545" y2="4"/>
        <line x1="124.03091545" y1="39.27127678" x2="124.03091545" y2="33.27127678"/>
        <line x1="115.27670856" y1="36.1441788" x2="109.27670856" y2="36.1441788"/>
        <line x1="109.97670856" y1="36.8441788" x2="114.57670856" y2="36.8441788"/>
        <line x1="123.33091545" y1="33.97127678" x2="123.33091545" y2="38.57127678"/>
        <line x1="114.57670856" y1="39.2441788" x2="109.97670856" y2="39.2441788"/>
        <line x1="109.27670856" y1="39.9441788" x2="115.27670856" y2="39.9441788"/>
        <line x1="119.73091545" y1="38.57127678" x2="119.73091545" y2="33.97127678"/>
        <line x1="119.03091545" y1="33.27127678" x2="119.03091545" y2="39.27127678"/>
        <line x1="106.73091545" y1="58.7" x2="106.73091545" y2="41.7"/>
        <line x1="106.23091545" y1="53" x2="106.23091545" y2="47"/>
        <line x1="106.23091545" y1="59.7" x2="106.23091545" y2="53.7"/>
        <line x1="105.53091545" y1="54.4" x2="105.53091545" y2="59"/>
        <line x1="105.53091545" y1="47.7" x2="105.53091545" y2="52.3"/>
        <line x1="103.13091545" y1="52.3" x2="103.13091545" y2="47.7"/>
        <line x1="102.43091545" y1="47" x2="102.43091545" y2="53"/>
        <line x1="96.93091545" y1="59" x2="96.93091545" y2="54.4"/>
        <line x1="96.23091545" y1="53.7" x2="96.23091545" y2="59.7"/>
        <line x1="120.73091545" y1="0" x2="5.73091545" y2="0"/>
        <line x1="95.23091545" y1="59.7" x2="95.23091545" y2="53.7"/>
        <line x1="94.53091545" y1="54.4" x2="94.53091545" y2="59"/>
        <line x1="85.93091545" y1="59" x2="85.93091545" y2="54.4"/>
        <line x1="85.23091545" y1="53.7" x2="85.23091545" y2="59.7"/>
        <line x1="75.89566442" y1="59.37819437" x2="75.89566442" y2="54.55892106"/>
        <line x1="75.19566442" y1="55.25892106" x2="75.19566442" y2="58.67819437"/>
        <line x1="7.43091545" y1="15.96788536" x2="2.43091545" y2="15.96788536"/>
        <line x1="124.03091545" y1="33.27127678" x2="119.03091545" y2="33.27127678"/>
        <line x1="119.73091545" y1="33.97127678" x2="123.33091545" y2="33.97127678"/>
        <line x1="3.13091545" y1="16.66788536" x2="6.73091545" y2="16.66788536"/>
        <line x1="6.73091545" y1="21.26788536" x2="3.13091545" y2="21.26788536"/>
        <line x1="123.33091545" y1="38.57127678" x2="119.73091545" y2="38.57127678"/>
        <line x1="119.03091545" y1="39.27127678" x2="124.03091545" y2="39.27127678"/>
        <line x1="2.43091545" y1="21.96788536" x2="7.43091545" y2="21.96788536"/>
        <line x1="6.23091545" y1="32.8" x2="2.43091545" y2="32.8"/>
        <line x1="109.27670856" y1="36.1441788" x2="109.27670856" y2="39.9441788"/>
        <line x1="109.97670856" y1="39.2441788" x2="109.97670856" y2="36.8441788"/>
        <line x1="3.13091545" y1="33.5" x2="5.53091545" y2="33.5"/>
        <line x1="16.84408198" y1="39.55975277" x2="16.84408198" y2="35.75975277"/>
        <line x1="16.14408198" y1="36.45975277" x2="16.14408198" y2="38.85975277"/>
        <line x1="5.53091545" y1="38.1" x2="3.13091545" y2="38.1"/>
        <line x1="114.57670856" y1="36.8441788" x2="114.57670856" y2="39.2441788"/>
        <line x1="58.59566442" y1="58.67819437" x2="58.59566442" y2="55.25892106"/>
        <line x1="57.89566442" y1="54.55892106" x2="57.89566442" y2="59.37819437"/>
        <line x1="115.27670856" y1="39.9441788" x2="115.27670856" y2="36.1441788"/>
        <line x1="2.43091545" y1="38.8" x2="6.23091545" y2="38.8"/>
        <line x1="12.59378414" y1="38.85975277" x2="12.59378414" y2="36.45975277"/>
        <line x1="108.23091545" y1="40.2" x2="123.23091545" y2="40.2"/>
        <line x1="11.89378414" y1="35.75975277" x2="11.89378414" y2="39.55975277"/>
        <line x1="106.23091545" y1="47" x2="102.43091545" y2="47"/>
        <line x1="21.12162398" y1="51.03438038" x2="21.12162398" y2="59.03438038"/>
        <line x1="103.13091545" y1="47.7" x2="105.53091545" y2="47.7"/>
        <line x1="21.82162398" y1="58.33438038" x2="21.82162398" y2="51.73438038"/>
        <line x1="105.53091545" y1="52.3" x2="103.13091545" y2="52.3"/>
        <line x1="26.42162398" y1="51.73438038" x2="26.42162398" y2="58.33438038"/>
        <line x1="102.43091545" y1="53" x2="106.23091545" y2="53"/>
        <line x1="27.12162398" y1="59.03438038" x2="27.12162398" y2="51.03438038"/>
        <line x1="57.29762654" y1="53.7" x2="47.29762654" y2="53.7"/>
        <line x1="95.23091545" y1="53.7" x2="85.23091545" y2="53.7"/>
        <line x1="106.23091545" y1="53.7" x2="96.23091545" y2="53.7"/>
        <line x1="96.93091545" y1="54.4" x2="105.53091545" y2="54.4"/>
        <line x1="85.93091545" y1="54.4" x2="94.53091545" y2="54.4"/>
        <line x1="47.99762654" y1="54.4" x2="56.59762654" y2="54.4"/>
        <line x1="75.89566442" y1="54.55892106" x2="57.89566442" y2="54.55892106"/>
        <line x1="58.59566442" y1="55.25892106" x2="75.19566442" y2="55.25892106"/>
        <line x1="75.19566442" y1="58.67819437" x2="58.59566442" y2="58.67819437"/>
        <line x1="56.59762654" y1="59" x2="47.99762654" y2="59"/>
        <line x1="94.53091545" y1="59" x2="85.93091545" y2="59"/>
        <line x1="105.53091545" y1="59" x2="96.93091545" y2="59"/>
        <line x1="57.89566442" y1="59.37819437" x2="75.89566442" y2="59.37819437"/>
        <line x1="96.23091545" y1="59.7" x2="106.23091545" y2="59.7"/>
        <line x1="85.23091545" y1="59.7" x2="95.23091545" y2="59.7"/>
        <line x1="47.29762654" y1="59.7" x2="57.29762654" y2="59.7"/>
        <line x1="105.23091545" y1="60.2" x2="21.23091545" y2="60.2"/>
        <line x1="57.29762654" y1="59.7" x2="57.29762654" y2="53.7"/>
        <line x1="56.59762654" y1="54.4" x2="56.59762654" y2="59"/>
        <line x1="27.12162398" y1="51.03438038" x2="21.12162398" y2="51.03438038"/>
        <line x1="21.82162398" y1="51.73438038" x2="26.42162398" y2="51.73438038"/>
        <line x1="11.89378414" y1="39.55975277" x2="16.84408198" y2="39.55975277"/>
        <line x1="16.14408198" y1="38.85975277" x2="12.59378414" y2="38.85975277"/>
        <line x1="12.59378414" y1="36.45975277" x2="16.14408198" y2="36.45975277"/>
        <line x1="26.42162398" y1="58.33438038" x2="21.82162398" y2="58.33438038"/>
        <line x1="16.84408198" y1="35.75975277" x2="11.89378414" y2="35.75975277"/>
        <line x1="47.99762654" y1="59" x2="47.99762654" y2="54.4"/>
        <line x1="21.12162398" y1="59.03438038" x2="27.12162398" y2="59.03438038"/>
        <line x1="47.29762654" y1="53.7" x2="47.29762654" y2="59.7"/>
        <line x1="19.73091545" y1="58.7" x2="19.73091545" y2="41.7"/>
        <line x1="7.43091545" y1="21.96788536" x2="7.43091545" y2="15.96788536"/>
        <line x1="6.73091545" y1="16.66788536" x2="6.73091545" y2="21.26788536"/>
        <line x1="6.23091545" y1="38.8" x2="6.23091545" y2="32.8"/>
        <line x1="5.53091545" y1="33.5" x2="5.53091545" y2="38.1"/>
        <line x1="3.13091545" y1="21.26788536" x2="3.13091545" y2="16.66788536"/>
        <line x1="3.13091545" y1="38.1" x2="3.13091545" y2="33.5"/>
        <line x1="2.43091545" y1="32.8" x2="2.43091545" y2="38.8"/>
        <line x1="2.43091545" y1="15.96788536" x2="2.43091545" y2="21.96788536"/>
        <line x1="1.73091545" y1="4" x2="1.73091545" y2="38.7"/>
        <path d="M5.73091545,0 A4,4 0 0,0 1.73091545,4 "/>
        <path d="M1.73091545,38.7 A1.5,1.5 0 0,0 3.23091545,40.2 "/>
        <line x1="7.43091545" y1="15.96788536" x2="2.43091545" y2="15.96788536"/>
        <line x1="3.13091545" y1="16.66788536" x2="6.73091545" y2="16.66788536"/>
        <line x1="6.73091545" y1="21.26788536" x2="3.13091545" y2="21.26788536"/>
        <line x1="2.43091545" y1="21.96788536" x2="7.43091545" y2="21.96788536"/>
        <line x1="6.23091545" y1="32.8" x2="2.43091545" y2="32.8"/>
        <line x1="3.13091545" y1="33.5" x2="5.53091545" y2="33.5"/>
        <line x1="5.53091545" y1="38.1" x2="3.13091545" y2="38.1"/>
        <line x1="2.43091545" y1="38.8" x2="6.23091545" y2="38.8"/>
        <line x1="3.23091545" y1="40.2" x2="18.23091545" y2="40.2"/>
        <line x1="3.13091545" y1="21.26788536" x2="3.13091545" y2="16.66788536"/>
        <line x1="3.13091545" y1="38.1" x2="3.13091545" y2="33.5"/>
        <line x1="2.43091545" y1="32.8" x2="2.43091545" y2="38.8"/>
        <line x1="2.43091545" y1="15.96788536" x2="2.43091545" y2="21.96788536"/>
    </g>
    <g lc:layername="01___PRT_ALL_DTM_PLN" lc:is_locked="false" lc:is_construction="false" fill="none" stroke="black" stroke-width="0.1"/>
    <g lc:layername="01___PRT_DEF_DTM_PLN" lc:is_locked="false" lc:is_construction="false" fill="none" stroke="black" stroke-width="0.1"/>
    <g lc:layername="02___PRT_ALL_AXES" lc:is_locked="false" lc:is_construction="false" fill="none" stroke="black" stroke-width="0.1">
        <circle cx="115.23091545" cy="18.3" r="2.3"/>
        <circle cx="11.23091545" cy="18.3" r="0.675"/>
        <circle cx="41.23091545" cy="56.3" r="2.3"/>
    </g>
    <g lc:layername="03___PRT_ALL_CURVES" lc:is_locked="false" lc:is_construction="false" fill="none" stroke="black" stroke-width="0.1">
        <circle cx="27.23091545" cy="39.3" r="0.6"/>
        <circle cx="33.23091545" cy="39.3" r="0.6"/>
        <path d="M115.73091545,14.83589838 A3.5,3.5 0 0,0 114.73091545,14.83589838 "/>
        <circle cx="35.23091545" cy="39.3" r="0.6"/>
        <circle cx="31.23091545" cy="39.3" r="0.6"/>
        <circle cx="29.23091545" cy="39.3" r="0.6"/>
        <line x1="114.73091545" y1="0" x2="114.73091545" y2="14.83589838"/>
        <line x1="115.73091545" y1="14.83589838" x2="115.73091545" y2="0"/>
        <line x1="11.83091545" y1="17.99076708" x2="11.83091545" y2="0"/>
        <line x1="10.63091545" y1="0" x2="10.63091545" y2="17.99076708"/>
        <line x1="171.36300634" y1="47.7461" x2="106.73091545" y2="47.7461"/>
        <line x1="170.924235" y1="29.5" x2="1.73091545" y2="29.5"/>
        <line x1="170.924235" y1="23.5" x2="1.73091545" y2="23.5"/>
        <circle cx="115.23091545" cy="18.3" r="3.5"/>
        <circle cx="41.23091545" cy="56.3" r="3.5"/>
        <line x1="1.73091545" y1="7.24539091" x2="170.924235" y2="7.25302644"/>
        <line x1="102.43091545" y1="47.7461" x2="19.73091545" y2="47.7461"/>
        <line x1="106.73091545" y1="47.7461" x2="106.23091545" y2="47.7461"/>
    </g>
    <g lc:layername="04___PRT_ALL_DTM_PNT" lc:is_locked="false" lc:is_construction="false" fill="none" stroke="black" stroke-width="0.1"/>
    <g lc:layername="05___PRT_ALL_DTM_CSYS" lc:is_locked="false" lc:is_construction="false" fill="none" stroke="black" stroke-width="0.1"/>
    <g lc:layername="05___PRT_DEF_DTM_CSYS" lc:is_locked="false" lc:is_construction="false" fill="none" stroke="black" stroke-width="0.1"/>
    <g lc:layername="06___PRT_ALL_SURFS" lc:is_locked="false" lc:is_construction="false" fill="none" stroke="black" stroke-width="0.1"/>
    <g lc:layername="06___PRT_AL_SURFS" lc:is_locked="false" lc:is_construction="false" fill="none" stroke="black" stroke-width="0.1"/>
    <g lc:layername="3_ALL_SYMBOLS" lc:is_locked="false" lc:is_construction="false" fill="none" stroke="black" stroke-width="0.1"/>
    <g lc:layername="ALUMINUM-TUBDXF_CONTINUOUS_LINE" lc:is_locked="false" lc:is_construction="false" fill="none" stroke="black" stroke-width="0.1"/>
    <g lc:layername="ALUMINUM-TUBE-SHRADXF_DIMENSION" lc:is_locked="false" lc:is_construction="false" fill="none" stroke="black" stroke-width="0.1"/>
    <g lc:layername="ALUMINUM-TUBE-SHRAPDXF_HATCHING" lc:is_locked="false" lc:is_construction="false" fill="none" stroke="black" stroke-width="0.1"/>
    <g lc:layername="ALUMINUM-TUBE-SHRAPNEDXF_FORMAT" lc:is_locked="false" lc:is_construction="false" fill="none" stroke="black" stroke-width="0.1"/>
    <g lc:layername="ALUMINUM-TUBE-SHRAPNEL_DXF_TEXT" lc:is_locked="false" lc:is_construction="false" fill="none" stroke="black" stroke-width="0.1"/>
    <g lc:layername="DEFAULT_1" lc:is_locked="false" lc:is_construction="false" fill="none" stroke="black" stroke-width="0.1"/>
    <g lc:layername="DEFAULT_2" lc:is_locked="false" lc:is_construction="false" fill="none" stroke="black" stroke-width="0.1"/>
    <g lc:layername="DEFAULT_3" lc:is_locked="false" lc:is_construction="false" fill="none" stroke="black" stroke-width="0.1"/>
    <g lc:layername="Defpoints" lc:is_locked="false" lc:is_construction="false" fill="none" stroke="black" stroke-width="0.1"/>
</svg>
